<!DOCTYPE svg PUBLIC "-//W3C//DTD SVG 1.1//EN" "http://www.w3.org/Graphics/SVG/1.1/DTD/svg11.dtd">
<!-- Uploaded to: SVG Repo, www.svgrepo.com, Transformed by: SVG Repo Mixer Tools -->
<svg fill="#000000" width="64px" height="64px" viewBox="0 0 24.00 24.00" id="menu-alt" data-name="Flat Color" xmlns="http://www.w3.org/2000/svg" class="icon flat-color" stroke="#000000" stroke-width="0.528" transform="matrix(1, 0, 0, 1, 0, 0)rotate(0)">
<g id="SVGRepo_bgCarrier" stroke-width="0"/>
<g id="SVGRepo_tracerCarrier" stroke-linecap="round" stroke-linejoin="round" stroke="#CCCCCC" stroke-width="1.152"/>
<g id="SVGRepo_iconCarrier">
<path id="secondary" d="M21,13H3a1,1,0,0,1,0-2H21a1,1,0,0,1,0,2Z" style="fill: #5cabff;"/>
<path id="primary" d="M21,19H3a1,1,0,0,1,0-2H21a1,1,0,0,1,0,2ZM21,7H3A1,1,0,0,1,3,5H21a1,1,0,0,1,0,2Z" style="fill: #f0f4ff;"/>
</g>
</svg>